Coordinates
version=1
nRows=9
nColumns=36
inDegrees=yes

Units are S.I. units (second, meters, Newtons, ...)
If the header above contains a line with 'inDegrees', this indicates whether rotational values are in degrees (yes) or radians (no).

endheader
time	pelvis_tilt	pelvis_list	pelvis_rotation	pelvis_tx	pelvis_ty	pelvis_tz	hip_flexion_r	hip_adduction_r	hip_rotation_r	knee_angle_r	knee_angle_r_beta	ankle_angle_r	subtalar_angle_r	mtp_angle_r	hip_flexion_l	hip_adduction_l	hip_rotation_l	knee_angle_l	knee_angle_l_beta	ankle_angle_l	subtalar_angle_l	mtp_angle_l	lumbar_extension	lumbar_bending	lumbar_rotation	arm_flex_r	arm_add_r	arm_rot_r	elbow_flex_r	pro_sup_r	arm_flex_l	arm_add_l	arm_rot_l	elbow_flex_l	pro_sup_l
      2.70000000	     -5.00993035	      9.71947098	      2.50461273	      1.05564358	      0.94581450	      0.04814687	      7.11058660	     -3.95010566	      7.13314317	      6.66937313	      0.11640252	     12.00739515	    -13.03694847	     -7.49999979	     47.57414583	     -0.89365413	    -10.72489443	     81.73051342	      1.42646656	     -4.12053751	    -13.09432182	     -7.49999979	     -5.55210776	     -5.90140810	      2.32480861	      9.19853196	    -26.21888846	     -8.42996613	     98.13987995	     72.71466584	      4.36562318	    -25.62369639	      4.93866227	    126.23910125	     71.11599223
      2.71666670	     -4.84918588	      9.84637720	      2.29874356	      1.05511350	      0.94768373	      0.04825693	      7.09189873	     -4.04056356	      7.57373845	      6.70444224	      0.11701459	     11.72045847	    -13.71050962	     -7.49999981	     47.91867096	     -0.75476132	    -10.82132907	     82.13884831	      1.43359335	     -4.30768626	    -13.53366221	     -7.49999981	     -5.44679956	     -6.05958510	      3.02647655	      8.78347639	    -26.12114609	     -8.95778511	     98.02522082	     74.51530941	      5.26751748	    -25.76708073	      5.66718370	    125.47172382	     71.86549062
      2.73333330	     -4.73798903	      9.89319147	      2.13852457	      1.05545838	      0.94564966	      0.04903375	      7.06444879	     -4.06076737	      7.75356130	      6.77361202	      0.11822183	     11.77201338	    -13.61643773	     -7.49999981	     47.97770024	     -0.60617806	    -10.83638236	     82.31866597	      1.43673176	     -4.46032222	    -13.74024649	     -7.49999981	     -5.33156495	     -6.05299134	      3.26332569	      8.94098813	    -26.15391989	     -8.75209178	     97.80972992	     74.15725193	      5.62441903	    -25.96395399	      5.67728765	    125.38307175	     71.52930555
      2.75000000	     -4.66515082	      9.94343417	      1.98080785	      1.05492411	      0.94294305	      0.04870145	      7.04253545	     -4.05565561	      8.09920063	      6.78798026	      0.11847261	     11.75164584	    -13.94465487	     -7.49999981	     48.12714279	     -0.53335015	    -10.92420542	     82.78068391	      1.44479549	     -4.48181998	    -13.95960618	     -7.49999981	     -5.29819134	     -5.99204328	      3.40271383	      8.98214364	    -26.32378684	     -8.65956084	     98.12360765	     74.02011380	      5.79484425	    -26.15570954	      5.38592523	    125.56086942	     71.31521629
      2.76666670	     -4.66944798	      9.91361389	      1.87834792	      1.05532926	      0.94337490	      0.04891185	      7.03819493	     -3.95436403	      8.36278309	      6.83268844	      0.11925291	     11.87414909	    -14.14751644	     -7.49999982	     47.98587253	     -0.40735137	    -10.83879237	     82.93890697	      1.44755700	     -4.39383582	    -13.97343356	     -7.49999982	     -5.03460816	     -5.91035227	      3.40393375	      9.05687711	    -26.36795687	     -8.67603827	     97.99588498	     73.82337970	      6.05534400	    -26.46026597	      5.30099168	    125.41049015	     71.10997175
      2.78333330	     -4.80385855	      9.92919656	      1.86458458	      1.05467973	      0.94302699	      0.04862184	      7.18960564	     -3.90825621	      8.53354909	      6.90640833	      0.12053956	     11.55039115	    -14.67757191	     -7.49999982	     47.60274892	     -0.12082171	    -10.74371919	     82.73587950	      1.44401351	     -4.48787658	    -13.57033100	     -7.49999982	     -4.81927319	     -5.88084809	      3.43908077	      9.07963971	    -26.43094626	     -8.65608102	     98.07985234	     73.59945362	      6.22323701	    -26.67179487	      5.29992781	    125.32720310	     70.82659342
      2.80000000	     -5.01115097	      9.97412283	      1.83009348	      1.05508893	      0.94345726	      0.04897586	      7.37431031	     -3.91431469	      8.59187351	      6.78534098	      0.11842654	     11.50372652	    -14.80494352	     -7.49999982	     46.88459264	      0.07900156	    -10.91631059	     82.02982965	      1.43169061	     -4.65536760	    -13.78477099	     -7.49999982	     -4.40801328	     -5.90283317	      3.48258052	      8.99936102	    -26.50596855	     -8.55075583	     97.86635743	     73.25943876	      6.01854121	    -26.78340171	      5.36277720	    125.01250400	     70.49200209
      2.81666670	     -5.15973381	      9.93740859	      1.97435973	      1.05465156	      0.94311611	      0.04865601	      7.54999790	     -3.85490912	      8.30361419	      6.77841702	      0.11830570	     11.57573842	    -14.87338531	     -7.49999983	     46.17251116	      0.28900422	    -10.98797482	     81.38110606	      1.42036825	     -5.52153476	    -14.22117951	     -7.49999983	     -4.13646357	     -5.83190323	      3.33449525	      8.88120785	    -26.74375737	     -8.34132436	     97.65908300	     72.27168817	      6.16089999	    -27.01577055	      5.59395039	    124.96837742	     69.65755719
      2.83333330	     -5.33732591	      9.77122750	      2.02255320	      1.05141230	      0.94092399	      0.04587791	      7.80118698	     -3.68845040	      8.25344160	      6.80455443	      0.11876188	     11.55252090	    -14.93620194	     -7.49999983	     45.70135145	      0.31420960	    -11.02512507	     80.99423354	      1.41361605	     -5.59498914	    -14.14280941	     -7.49999983	     -4.01048918	     -5.56619116	      3.20068942	      8.89622476	    -26.89797364	     -8.43503125	     97.64776484	     72.29171175	      6.26793200	    -27.03585846	      5.54945574	    125.02247673	     69.67568856
